<?xml version="1.0" encoding="utf-8"?>
<!DOCTYPE svg PUBLIC "-//W3C//DTD SVG 20010904//EN" "http://www.w3.org/TR/2001/REC-SVG-20010904/DTD/svg10.dtd">
<svg version="1.0" xmlns="http://www.w3.org/2000/svg" width="750px" height="750px" viewBox="0 0 750 750" preserveAspectRatio="xMidYMid meet">
 <g fill="#ffffff">
  <path d="M0 375 l0 -375 375 0 375 0 0 375 0 375 -375 0 -375 0 0 -375z"/>
 </g>
 <g fill="#000000">
  <path d="M349 642.4 c0 -2.1 -28.6 -95.9 -30.4 -99.9 -0.8 -1.6 -13.2 -19.2 -27.5 -39 l-26.1 -36 0 -48 0 -48.1 -27.1 -37.4 c-14.9 -20.6 -27.6 -38.2 -28.3 -39 -1.1 -1.2 0.6 -8.6 10 -43.5 l11.3 -42 -14 -49.3 c-7.7 -27.1 -13.9 -49.7 -13.7 -50.2 0.2 -0.7 30.6 -1 88.1 -1 l87.7 0 0 -2.5 0 -2.5 144.1 0 144.1 0 -0.5 6.3 c-0.2 4.3 -5.5 22.8 -17.5 61.7 l-17.2 55.5 0 40.7 c0 34.2 -0.2 41.1 -1.5 42.5 -0.8 1 -11.9 16.2 -24.7 33.8 l-23.3 32 -0.2 41.7 -0.2 41.6 -24 32.9 -23.9 32.9 -14.7 48 c-8 26.3 -16.2 53 -18.1 59.2 l-3.5 11.2 -74.5 0 c-67.8 0 -74.4 -0.1 -74.4 -1.6z m156.5 -66.6 l16.8 -55.3 23.9 -32.9 23.8 -32.9 0 -41.2 0 -41.1 24.5 -33.7 24.5 -33.7 0 -40.5 c0 -25.1 0.4 -41.2 1 -42.3 0.5 -0.9 4.3 -12.7 8.4 -26.2 4.1 -13.5 11.3 -36.9 15.9 -52 l8.4 -27.5 -136.9 -0.3 -136.8 -0.2 0 -2.5 0 -2.5 -86.6 0 c-68.9 0 -86.5 0.3 -86.1 1.3 0.2 0.6 6.6 22.8 14.1 49.2 l13.7 48 -11.1 41.5 c-11.1 41.3 -11.1 41.4 -9.2 44 1 1.4 13.6 18.8 28 38.7 l26.2 36.3 0 48.2 0 48.3 26.8 37.1 26.7 37 11.9 39 c6.6 21.4 12.8 41.7 13.8 45.2 l1.9 6.2 69.7 0 69.8 0 16.9 -55.2z"/>
  <path d="M251 561.3 c-61.5 -8.3 -116.1 -61.2 -135.9 -131.6 -5.9 -21 -8.1 -37.7 -8.2 -60.7 0 -33.3 6.3 -60.7 20.3 -88.2 13.1 -25.8 30.1 -44.7 53.3 -59.3 6.7 -4.2 24.6 -12.5 27 -12.5 0.5 0 4.8 9.2 5.9 12.8 0.6 1.7 -0.1 2.2 -4.6 3.7 -2.9 0.9 -9.6 3.9 -14.8 6.6 -45.5 23.7 -73.9 76.7 -74 138.1 -0.1 86.3 54.7 161.8 126.7 174.3 11.2 2 25.8 1.9 36.9 -0.1 13.2 -2.4 12.5 -2.6 15.5 3.6 4.5 8.9 4.7 8.6 -10.1 12 -4.9 1.2 -32.3 2.1 -38 1.3z"/>
 </g>
</svg>