<?xml version="1.0" encoding="utf-8"?>
<!DOCTYPE svg PUBLIC "-//W3C//DTD SVG 20010904//EN" "http://www.w3.org/TR/2001/REC-SVG-20010904/DTD/svg10.dtd">
<svg version="1.0" xmlns="http://www.w3.org/2000/svg" width="750px" height="750px" viewBox="0 0 750 750" preserveAspectRatio="xMidYMid meet">
 <g fill="#ffffff" stroke="#ffffff" stroke-width="1">
  <path d="M0 375 l0 -375 375 0 375 0 0 375 0 375 -375 0 -375 0 0 -375z"/>
 </g>
 <g fill="#000000" stroke="#000000" stroke-width="1">
  <path d="M0 375 l0 -375 375 0 375 0 0 375 0 375 -375 0 -375 0 0 -375z m501.4 257.8 c1.9 -6.2 10.1 -32.9 18.1 -59.2 l14.7 -48 23.9 -32.9 24 -32.9 0.2 -41.6 0.2 -41.7 23.3 -32 c12.8 -17.6 23.9 -32.8 24.7 -33.8 1.3 -1.4 1.5 -8.3 1.5 -42.5 l0 -40.7 17.2 -55.5 c12 -38.9 17.3 -57.4 17.5 -61.7 l0.5 -6.3 -144.1 0 -144.1 0 0 2.5 0 2.5 -87.7 0 c-57.5 0 -87.9 0.3 -88.1 1 -0.2 0.5 6 23.1 13.7 50.2 l14 49.3 -11.3 42 c-9.4 34.9 -11.1 42.3 -10 43.5 0.7 0.8 13.4 18.4 28.3 39 l27.1 37.4 0 48.1 0 48 26.1 36 c14.3 19.8 26.7 37.4 27.5 39 1.8 4 30.4 97.8 30.4 99.9 0 1.5 6.6 1.6 74.4 1.6 l74.5 0 3.5 -11.2z m-212.4 -72.8 c14.8 -3.4 14.6 -3.1 10.1 -12 -3 -6.2 -2.3 -6 -15.5 -3.6 -31.2 5.7 -64.6 -3.3 -94.1 -25.3 -18.8 -14.1 -37.2 -36.5 -48.9 -59.8 -34.8 -69.6 -24.7 -157.3 23.7 -205.2 4.5 -4.4 10.9 -10.1 14.2 -12.5 7.1 -5.3 22.9 -13.7 30.3 -16.1 4.5 -1.5 5.2 -2 4.6 -3.7 -1.1 -3.6 -5.4 -12.8 -5.9 -12.8 -0.3 0 -4.6 1.6 -9.5 3.6 -46.5 18.6 -80.6 67.4 -89.5 127.9 -1.9 12.7 -2.1 41.8 -0.5 54 6.6 48.9 24.6 88.2 55 119.9 24.8 25.9 56.1 42.6 88 46.9 5.7 0.8 33.1 -0.1 38 -1.3z"/>
  <path d="M347.2 624.8 c-1 -3.5 -7.2 -23.8 -13.8 -45.2 l-11.9 -39 -26.7 -37 -26.8 -37.1 0 -48.3 0 -48.2 -26.2 -36.3 c-14.4 -19.9 -27 -37.3 -28 -38.7 -1.9 -2.6 -1.9 -2.7 9.2 -44 l11.1 -41.5 -13.7 -48 c-7.5 -26.4 -13.9 -48.6 -14.1 -49.2 -0.4 -1 17.2 -1.3 86.1 -1.3 l86.6 0 0 2.5 0 2.5 136.8 0.2 136.9 0.3 -8.4 27.5 c-4.6 15.1 -11.8 38.5 -15.9 52 -4.1 13.5 -7.9 25.3 -8.4 26.2 -0.6 1.1 -1 17.2 -1 42.3 l0 40.5 -24.5 33.7 -24.5 33.7 0 41.1 0 41.2 -23.8 32.9 -23.9 32.9 -16.8 55.3 -16.9 55.2 -69.8 0 -69.7 0 -1.9 -6.2z"/>
 </g>
</svg>